# xmcd CD database file
#
# Track frame offsets:
#	150
#	19206
#	34538
#	50536
#	67350
#	82823
#	100598
#	120294
#	138423
#	157446
#	171076
#	189570
#	207867
#
# Disc length: 2977 seconds
#
# Revision: 3
# Processed by: cddbd v1.5.2PL0 Copyright (c) Steve Scherf et al.
# Submitted via: CdAid (MTCDDB.DLL V2003.07.15)
#
DISCID=af0b9f0d
DTITLE=Alan Jackson - Like Red On A Rose
DYEAR=2006
DGENRE=Country
TTITLE0=Anywhere On Earth You Are
TTITLE1=Good Imitation Of The Blues
TTITLE2=Like Red On A Rose
TTITLE3=Nobody Said That It Would Be Easy
TTITLE4=Don't Change On Me
TTITLE5=The Firefly's Song
TTITLE6=Wait A Minute
TTITLE7=Had It Not Been You
TTITLE8=A Woman's Love
TTITLE9=Don't Ask Why
TTITLE10=As Lovely As You
TTITLE11=Where Do I Go From Here (A Trucker's Song)
TTITLE12=Bluebird
EXTD=ID3G:   2 YEAR: 2006
EXTT0=
EXTT1=
EXTT2=
EXTT3=
EXTT4=
EXTT5=
EXTT6=
EXTT7=
EXTT8=
EXTT9=
EXTT10=
EXTT11=
EXTT12=
PLAYORDER=
